<svg preserveAspectRatio="none" width="100%" height="100%" overflow="visible" style="display: block;" viewBox="0 0 22.0001 20" fill="none" xmlns="http://www.w3.org/2000/svg">
<path id="Vector" d="M6.00007 19H16.0001M11.0001 1V19M2.00007 5H4.00007C6.00007 5 9.00007 4 11.0001 3C13.0001 4 16.0001 5 18.0001 5H20.0001M15.0001 14L18.0001 6L21.0001 14C20.1301 14.65 19.0801 15 18.0001 15C16.9201 15 15.8701 14.65 15.0001 14ZM1.00007 14L4.00007 6L7.00007 14C6.13007 14.65 5.08007 15 4.00007 15C2.92007 15 1.87007 14.65 1.00007 14Z" stroke="var(--stroke-0, #064E3B)" stroke-width="2" stroke-linecap="round" stroke-linejoin="round"/>
</svg>
